<?xml version="1.0" encoding="utf-8"?><svg viewBox="0 0 25 30" xmlns="http://www.w3.org/2000/svg" xmlns:xlink="http://www.w3.org/1999/xlink"><style>:root>svg{display:none}:root>svg:target{display:block}</style><svg viewBox="0 0 16 15" id="cart" xmlns="http://www.w3.org/2000/svg"><g clip-path="url(#aa)"><path d="M5.333 14.934a1.067 1.067 0 100-2.134 1.067 1.067 0 000 2.134zm7.467 0a1.067 1.067 0 100-2.134 1.067 1.067 0 000 2.134zm2.133-12.267H3.104L2.667.427A.533.533 0 002.133 0H0v1.067h1.696l2.037 10.24a.533.533 0 00.534.426h9.6v-1.066H4.704l-.437-2.134h9.6a.533.533 0 00.533-.416l1.067-4.8a.535.535 0 00-.534-.65zm-1.493 4.8H4.064l-.747-3.734h10.95l-.827 3.734z"/></g><defs><clipPath id="aa"><path d="M0 0h16v14.933H0z"/></clipPath></defs></svg><svg viewBox="0 0 24 24" id="f" xmlns="http://www.w3.org/2000/svg"><path d="M21.16 1H1.84a.84.84 0 00-.84.84v19.32c0 .465.375.84.84.84h19.32a.84.84 0 00.84-.84V1.84a.84.84 0 00-.84-.84zm-2.425 6.13h-1.678c-1.315 0-1.57.624-1.57 1.543v2.024h3.14l-.41 3.168h-2.73V22h-3.273v-8.132H9.476v-3.171h2.738V8.36c0-2.712 1.656-4.19 4.077-4.19 1.16 0 2.155.087 2.446.126v2.832h-.002z"/></svg><svg viewBox="0 0 24 24" id="ins" xmlns="http://www.w3.org/2000/svg"><path d="M11.997 6.112c-2.84 0-5.13 2.407-5.13 5.388s2.29 5.387 5.13 5.387 5.131-2.406 5.131-5.387c0-2.981-2.291-5.388-5.13-5.388zm0 8.89c-1.836 0-3.334-1.574-3.334-3.502 0-1.928 1.498-3.501 3.334-3.501 1.837 0 3.335 1.573 3.335 3.501s-1.498 3.502-3.335 3.502zm5.341-10.366c-.663 0-1.198.562-1.198 1.258 0 .697.535 1.259 1.198 1.259.663 0 1.199-.56 1.199-1.259 0-.165-.031-.329-.091-.481a1.264 1.264 0 00-.26-.409 1.194 1.194 0 00-.389-.272 1.148 1.148 0 00-.459-.096zm4.66 6.864c0-1.45.013-2.887-.064-4.334-.078-1.681-.443-3.173-1.614-4.403-1.173-1.232-2.591-1.612-4.192-1.694-1.381-.081-2.75-.068-4.128-.068-1.381 0-2.75-.013-4.128.068-1.601.082-3.022.465-4.193 1.694-1.173 1.232-1.536 2.722-1.613 4.403C1.988 8.616 2 10.053 2 11.5c0 1.447-.013 2.887.065 4.334.077 1.681.443 3.173 1.613 4.403 1.174 1.232 2.592 1.613 4.193 1.694 1.381.081 2.75.068 4.128.068 1.38 0 2.75.013 4.128-.068 1.6-.082 3.021-.465 4.192-1.694 1.174-1.232 1.536-2.722 1.614-4.403.08-1.447.065-2.884.065-4.334zm-2.2 6.194a3.355 3.355 0 01-.756 1.203c-.353.37-.69.602-1.146.793-1.316.55-4.44.426-5.899.426-1.458 0-4.585.123-5.901-.423A3.17 3.17 0 014.95 18.9a3.38 3.38 0 01-.755-1.203c-.52-1.385-.403-4.666-.403-6.197 0-1.531-.118-4.815.403-6.197.182-.478.402-.835.755-1.203.353-.367.69-.601 1.146-.793 1.316-.546 4.443-.423 5.901-.423 1.459 0 4.586-.123 5.902.423a3.17 3.17 0 011.145.793c.353.37.573.725.756 1.203.52 1.382.403 4.666.403 6.197 0 1.531.117 4.812-.406 6.194z"/></svg><svg viewBox="0 0 25 30" id="play" xmlns="http://www.w3.org/2000/svg"><g clip-path="url(#da)"><path d="M.3.8l24 14.4-24 14.4V.8z"/></g><defs><clipPath id="da"><path transform="translate(.3 .8)" d="M0 0h24v28.8H0z"/></clipPath></defs></svg><svg viewBox="0 0 16 16" id="search" xmlns="http://www.w3.org/2000/svg"><path fill-rule="evenodd" clip-rule="evenodd" d="M11.46 10.319l4.304 4.303a.807.807 0 01-1.142 1.141L10.32 11.46a6.4 6.4 0 111.14-1.14h.001zm-5.06.88a4.8 4.8 0 100-9.6 4.8 4.8 0 000 9.6z"/></svg><svg viewBox="0 0 24 24" id="twit" xmlns="http://www.w3.org/2000/svg"><path d="M22 5.02a8.655 8.655 0 01-2.478.663 4.28 4.28 0 001.893-2.364c-.844.5-1.768.85-2.731 1.036A4.293 4.293 0 0015.539 3a4.295 4.295 0 00-4.303 4.29c0 .332.04.664.106.984a12.244 12.244 0 01-8.873-4.49 4.287 4.287 0 001.333 5.739 4.352 4.352 0 01-1.946-.545v.052a4.293 4.293 0 003.45 4.21c-.37.096-.751.145-1.134.146a5.84 5.84 0 01-.812-.065 4.31 4.31 0 004.023 2.975 8.645 8.645 0 01-5.343 1.833c-.361 0-.694-.013-1.04-.053A12.217 12.217 0 007.61 20c7.914 0 12.245-6.533 12.245-12.204 0-.186 0-.372-.013-.559A9.25 9.25 0 0022 5.02z"/></svg><svg viewBox="0 0 25 18" id="y" xmlns="http://www.w3.org/2000/svg"><g clip-path="url(#ga)"><path d="M23.97 2.932a3.192 3.192 0 00-.775-1.41 2.966 2.966 0 00-1.34-.814C19.988.177 12.488.177 12.488.177s-7.5 0-9.367.53a2.966 2.966 0 00-1.34.815c-.372.39-.639.877-.775 1.41A34.16 34.16 0 00.5 9a34.161 34.161 0 00.505 6.068c.136.533.403 1.02.775 1.41.37.39.833.67 1.34.814 1.866.531 9.367.531 9.367.531s7.5 0 9.367-.531a2.966 2.966 0 001.34-.815c.371-.39.639-.876.775-1.409.348-2.002.518-4.033.505-6.068a34.163 34.163 0 00-.505-6.068zm-13.88 9.85V5.218l6.225 3.78-6.225 3.782z"/></g><defs><clipPath id="ga"><path transform="translate(.5 .158)" d="M0 0h24v17.684H0z"/></clipPath></defs></svg></svg>